<svg width="293.000000" height="42.488525" viewBox="0 0 293 42.4885" fill="none" xmlns="http://www.w3.org/2000/svg">
	<g>
		<path  d="M118.87 42.48C118.59 42.48 118.28 42.39 118.03 42.23C117.31 41.77 117.1 40.8 117.56 40.09L120.55 35.42C120.55 35.42 120.55 35.42 120.55 35.39L125.06 28.32C125.78 27.29 126.93 26.7 128.15 26.7C129.36 26.7 130.54 27.29 131.23 28.32C131.23 28.35 135.99 35.36 135.99 35.36C135.99 35.36 135.99 35.36 135.99 35.39L139.16 40.06C139.63 40.77 139.48 41.74 138.76 42.2C138.04 42.67 137.08 42.51 136.61 41.8L133.9 37.78L122.67 37.78L120.12 41.77C119.8 42.23 119.31 42.48 118.81 42.48L118.87 42.48ZM124.75 34.67L131.88 34.67L128.77 30.06C128.61 29.81 128.36 29.78 128.24 29.78C128.11 29.78 127.87 29.81 127.71 30.06L124.75 34.67Z" fill="#000000" fill-opacity="1.000000" fill-rule="nonzero"/>
		<path  d="M96.12 42.48C93.28 42.48 88.52 42.48 88.52 34.58C88.52 26.67 93.28 26.67 96.12 26.67C98.95 26.67 97.67 27.36 97.67 28.23C97.67 29.1 96.99 29.78 96.12 29.78C93.22 29.78 91.63 29.78 91.63 34.58C91.63 39.37 93.22 39.37 96.12 39.37C99.01 39.37 97.67 40.06 97.67 40.93C97.67 41.8 96.99 42.48 96.12 42.48Z" fill="#000000" fill-opacity="1.000000" fill-rule="nonzero"/>
		<path  d="M109.53 42.48L96.12 42.48C95.24 42.48 94.56 41.8 94.56 40.93C94.56 40.06 95.24 39.37 96.12 39.37L109.53 39.37C110.4 39.37 111.09 40.06 111.09 40.93C111.09 41.8 110.4 42.48 109.53 42.48ZM109.53 29.82L96.12 29.82C95.24 29.82 94.56 29.13 94.56 28.26C94.56 27.39 95.24 26.7 96.12 26.7L109.53 26.7C110.4 26.7 111.09 27.39 111.09 28.26C111.09 29.13 110.4 29.82 109.53 29.82Z" fill="#000000" fill-opacity="1.000000" fill-rule="nonzero"/>
		<path  d="M81.02 29.81L60.76 29.81C59.88 29.81 59.2 29.13 59.2 28.26C59.2 27.39 59.88 26.7 60.76 26.7L81.02 26.7C81.89 26.7 82.58 27.39 82.58 28.26C82.58 29.13 81.89 29.81 81.02 29.81Z" fill="#000000" fill-opacity="1.000000" fill-rule="nonzero"/>
		<path  d="M70.87 42.48C70 42.48 69.32 41.8 69.32 40.93L69.32 28.45C69.32 27.57 70 26.89 70.87 26.89C71.74 26.89 72.43 27.57 72.43 28.45L72.43 40.93C72.43 41.8 71.74 42.48 70.87 42.48Z" fill="#000000" fill-opacity="1.000000" fill-rule="nonzero"/>
		<path  d="M50.42 42.48C49.55 42.48 48.86 41.8 48.86 40.93L48.86 28.26C48.86 27.39 49.55 26.7 50.42 26.7C51.29 26.7 51.98 27.39 51.98 28.26L51.98 40.93C51.98 41.8 51.29 42.48 50.42 42.48ZM32.06 42.48C31.18 42.48 30.5 41.8 30.5 40.93L30.5 28.26C30.5 27.39 31.18 26.7 32.06 26.7C32.93 26.7 33.61 27.39 33.61 28.26L33.61 40.93C33.61 41.8 32.93 42.48 32.06 42.48Z" fill="#000000" fill-opacity="1.000000" fill-rule="nonzero"/>
		<path  d="M32.06 42.48C31.56 42.48 31.09 42.23 30.78 41.8C30.28 41.08 30.47 40.12 31.18 39.62L49.55 26.95C50.27 26.45 51.23 26.64 51.73 27.36C52.23 28.07 52.04 29.04 51.32 29.53L32.96 42.2C32.68 42.39 32.37 42.48 32.09 42.48L32.06 42.48Z" fill="#000000" fill-opacity="1.000000" fill-rule="nonzero"/>
		<path  d="M155.13 27.73C154.64 27.73 154.17 27.51 153.86 27.08C153.36 26.39 153.51 25.39 154.23 24.9L159.24 21.32C159.93 20.82 160.92 20.97 161.42 21.69C161.92 22.38 161.76 23.37 161.05 23.87L156.04 27.45C155.75 27.64 155.44 27.73 155.13 27.73Z" fill="#000000" fill-opacity="1.000000" fill-rule="nonzero"/>
		<path  d="M166.81 42.48C165.93 42.48 165.25 41.8 165.25 40.93L165.25 28.26C165.25 27.39 165.93 26.7 166.81 26.7C167.68 26.7 168.36 27.39 168.36 28.26L168.36 40.93C168.36 41.8 167.68 42.48 166.81 42.48ZM148.44 42.48C147.57 42.48 146.88 41.8 146.88 40.93L146.88 28.26C146.88 27.39 147.57 26.7 148.44 26.7C149.31 26.7 150 27.39 150 28.26L150 40.93C150 41.8 149.31 42.48 148.44 42.48Z" fill="#000000" fill-opacity="1.000000" fill-rule="nonzero"/>
		<path  d="M148.44 42.48C147.94 42.48 147.48 42.23 147.16 41.8C146.67 41.08 146.85 40.12 147.57 39.62L165.93 26.95C166.65 26.45 167.62 26.64 168.11 27.36C168.61 28.07 168.42 29.04 167.71 29.53L149.34 42.2C149.06 42.39 148.75 42.48 148.47 42.48L148.44 42.48Z" fill="#000000" fill-opacity="1.000000" fill-rule="nonzero"/>
		<path  d="M1.55 42.48C0.68 42.48 0 41.8 0 40.93L0 28.26C0 27.39 0.68 26.7 1.55 26.7C2.42 26.7 3.11 27.39 3.11 28.26L3.11 40.93C3.11 41.8 2.42 42.48 1.55 42.48Z" fill="#000000" fill-opacity="1.000000" fill-rule="nonzero"/>
		<path  d="M21.19 42.48C20.76 42.48 20.32 42.3 20.04 41.95C18.73 40.49 14.69 36.63 11.39 36.13L1.55 36.13C0.68 36.13 0 35.45 0 34.58C0 33.71 0.68 33.02 1.55 33.02L11.45 33.02C11.48 33.02 11.54 33.02 11.57 33.02C11.61 33.02 11.67 33.02 11.7 33.02C16.87 33.71 22.13 39.62 22.34 39.87C22.9 40.52 22.84 41.49 22.22 42.08C21.91 42.33 21.57 42.48 21.19 42.48Z" fill="#000000" fill-opacity="1.000000" fill-rule="nonzero"/>
		<path  d="M197.56 29.81L177.3 29.81C176.42 29.81 175.74 29.13 175.74 28.26C175.74 27.39 176.42 26.7 177.3 26.7L197.56 26.7C198.43 26.7 199.12 27.39 199.12 28.26C199.12 29.13 198.43 29.81 197.56 29.81Z" fill="#000000" fill-opacity="1.000000" fill-rule="nonzero"/>
		<path  d="M187.41 42.48C186.54 42.48 185.86 41.8 185.86 40.93L185.86 28.45C185.86 27.57 186.54 26.89 187.41 26.89C188.28 26.89 188.97 27.57 188.97 28.45L188.97 40.93C188.97 41.8 188.28 42.48 187.41 42.48Z" fill="#000000" fill-opacity="1.000000" fill-rule="nonzero"/>
		<path  d="M11.48 36.13L1.55 36.13C0.68 36.13 0 35.45 0 34.58C0 33.71 0.68 33.02 1.55 33.02L11.36 33.02C14.66 32.52 18.7 28.66 20.01 27.2C20.57 26.55 21.57 26.48 22.22 27.08C22.87 27.64 22.94 28.63 22.34 29.29C22.13 29.53 16.87 35.42 11.7 36.13C11.67 36.13 11.61 36.13 11.57 36.13C11.54 36.13 11.51 36.13 11.48 36.13Z" fill="#000000" fill-opacity="1.000000" fill-rule="nonzero"/>
		<path  d="M33.77 8.75Q33.25 8.5 32.6 8.5Q31.99 8.5 31.49 8.73Q31.44 8.75 31.4 8.77Q31.15 8.9 30.95 9.08Q30.71 9.28 30.53 9.56Q30.6 8.54 31.1 7.99Q31.61 7.45 32.64 7.22L34.85 6.74L34.71 5.87L32.31 6.41Q31.11 6.67 30.45 7.41Q30.36 7.51 30.28 7.62Q29.62 8.54 29.62 10.15Q29.62 11.81 30.35 12.73Q30.58 13.03 30.89 13.23Q31.51 13.65 32.41 13.65Q33.2 13.65 33.82 13.32Q34.2 13.12 34.47 12.83Q34.65 12.64 34.78 12.4Q34.82 12.34 34.85 12.28Q35.12 11.74 35.12 11.05Q35.12 10.35 34.84 9.79Q34.82 9.76 34.8 9.73Q34.64 9.43 34.41 9.2Q34.19 8.98 33.91 8.82Q33.84 8.79 33.77 8.75ZM72.26 7.29Q72.67 7.64 73.4 7.64Q74.13 7.64 74.54 7.29Q74.64 7.21 74.71 7.11Q74.96 6.78 74.97 6.27L74.3 6.27Q74.3 6.51 74.19 6.68Q74.13 6.78 74.05 6.86Q74.01 6.89 73.98 6.91Q73.74 7.08 73.39 7.08Q73.04 7.08 72.81 6.91Q72.78 6.89 72.74 6.86Q72.67 6.79 72.61 6.7Q72.5 6.52 72.49 6.27L71.85 6.27Q71.86 6.8 72.12 7.14Q72.19 7.22 72.26 7.29ZM16.48 11.28Q16.2 10.97 15.67 10.83Q16.11 10.68 16.37 10.37Q16.52 10.19 16.58 9.99Q16.62 9.84 16.62 9.67Q16.62 9.5 16.58 9.35Q16.51 9.12 16.34 8.93Q16.05 8.61 15.54 8.43Q15.04 8.25 14.41 8.25Q14 8.25 13.61 8.32Q12.99 8.43 12.4 8.73L12.65 9.47Q13.52 9.06 14.31 9.06Q14.92 9.06 15.28 9.26Q15.51 9.38 15.6 9.58Q15.64 9.68 15.64 9.81Q15.64 9.94 15.59 10.05Q15.52 10.22 15.34 10.33Q15.03 10.52 14.49 10.52L13.6 10.52L13.6 11.2L14.56 11.2Q15.15 11.2 15.47 11.4Q15.64 11.51 15.72 11.66Q15.79 11.79 15.79 11.96Q15.79 12.1 15.75 12.21Q15.66 12.44 15.39 12.59Q14.99 12.82 14.32 12.82Q14.22 12.82 14.12 12.82Q13.72 12.8 13.34 12.69Q12.85 12.56 12.47 12.32L12.19 13.04Q12.62 13.33 13.18 13.49Q13.44 13.56 13.71 13.59Q14.01 13.64 14.33 13.64Q15.02 13.64 15.58 13.43Q16.14 13.23 16.46 12.87Q16.63 12.67 16.71 12.43Q16.77 12.25 16.77 12.04Q16.77 11.75 16.65 11.52Q16.59 11.39 16.48 11.28ZM4.91 8.52Q4.36 8.27 3.7 8.27Q3.13 8.27 2.65 8.48Q2.64 8.49 2.63 8.49Q2.41 8.59 2.22 8.74Q2 8.91 1.83 9.15L1.83 8.32L0.92 8.32L0.92 15.49L1.87 15.49L1.87 12.77Q2.06 13.02 2.3 13.2Q2.47 13.32 2.66 13.41Q2.69 13.42 2.71 13.43Q3.16 13.63 3.7 13.63Q4.36 13.63 4.91 13.37Q4.99 13.34 5.07 13.29Q5.35 13.13 5.58 12.91Q5.83 12.66 6.01 12.34Q6.02 12.32 6.04 12.3Q6.35 11.7 6.35 10.94Q6.35 10.16 6.02 9.56Q6.02 9.56 6.01 9.55Q5.84 9.24 5.59 9Q5.36 8.77 5.07 8.61Q4.99 8.56 4.91 8.52ZM10.92 8.8Q10.35 8.27 9.26 8.27Q8.62 8.27 8.06 8.44Q7.49 8.62 7.09 8.94L7.48 9.65Q7.79 9.4 8.23 9.25Q8.54 9.14 8.85 9.11Q9 9.09 9.15 9.09Q9.84 9.09 10.2 9.42Q10.25 9.47 10.3 9.53Q10.55 9.84 10.55 10.36L10.55 10.55L9.05 10.55Q7.95 10.55 7.44 10.97Q7.23 11.15 7.11 11.38Q6.94 11.68 6.94 12.08Q6.94 12.44 7.08 12.73Q7.21 13 7.47 13.2Q8 13.63 8.88 13.63Q9.48 13.63 9.92 13.43Q10.27 13.28 10.49 13.02Q10.55 12.95 10.6 12.87L10.6 13.57L11.5 13.57L11.5 10.4Q11.5 9.44 11.03 8.91Q10.98 8.85 10.92 8.8ZM21.91 8.52Q21.37 8.27 20.7 8.27Q20.13 8.27 19.66 8.48Q19.64 8.49 19.63 8.49Q19.41 8.59 19.23 8.74Q19.01 8.91 18.83 9.15L18.83 8.32L17.92 8.32L17.92 15.49L18.87 15.49L18.87 12.77Q19.07 13.02 19.31 13.2Q19.48 13.32 19.67 13.41Q19.69 13.42 19.72 13.43Q20.17 13.63 20.7 13.63Q21.37 13.63 21.91 13.37Q21.99 13.34 22.07 13.29Q22.36 13.13 22.58 12.91Q22.84 12.66 23.02 12.34Q23.03 12.32 23.04 12.3Q23.36 11.7 23.36 10.94Q23.36 10.16 23.03 9.56Q23.02 9.56 23.02 9.55Q22.84 9.24 22.6 9Q22.37 8.77 22.07 8.61Q21.99 8.56 21.91 8.52ZM27.93 8.8Q27.35 8.27 26.26 8.27Q25.63 8.27 25.06 8.44Q24.5 8.62 24.09 8.94L24.49 9.65Q24.8 9.4 25.24 9.25Q25.54 9.14 25.85 9.11Q26 9.09 26.15 9.09Q26.85 9.09 27.2 9.42Q27.26 9.47 27.31 9.53Q27.56 9.84 27.56 10.36L27.56 10.55L26.05 10.55Q24.95 10.55 24.45 10.97Q24.23 11.15 24.11 11.38Q23.94 11.68 23.94 12.08Q23.94 12.44 24.09 12.73Q24.22 13 24.47 13.2Q25 13.63 25.89 13.63Q26.49 13.63 26.93 13.43Q27.28 13.28 27.5 13.02Q27.56 12.95 27.61 12.87L27.61 13.57L28.51 13.57L28.51 10.4Q28.51 9.44 28.03 8.91Q27.98 8.85 27.93 8.8ZM37.2 13.37Q37.76 13.63 38.43 13.63Q39.11 13.63 39.67 13.37Q39.75 13.33 39.83 13.28Q40.17 13.1 40.42 12.83Q40.64 12.61 40.8 12.32Q40.86 12.22 40.91 12.11Q41.16 11.58 41.16 10.94Q41.16 10.29 40.91 9.76Q40.86 9.66 40.8 9.56Q40.63 9.27 40.4 9.04Q40.15 8.79 39.83 8.61Q39.76 8.57 39.69 8.54Q39.13 8.27 38.43 8.27Q37.74 8.27 37.18 8.53Q37.1 8.57 37.03 8.61Q36.69 8.79 36.44 9.05Q36.21 9.28 36.05 9.56Q36 9.65 35.95 9.75Q35.7 10.29 35.7 10.94Q35.7 11.59 35.94 12.12Q35.99 12.23 36.05 12.32Q36.21 12.6 36.42 12.82Q36.68 13.09 37.03 13.28Q37.11 13.33 37.2 13.37ZM55.69 8.8Q55.11 8.27 54.02 8.27Q53.39 8.27 52.82 8.44Q52.26 8.62 51.85 8.94L52.25 9.65Q52.56 9.4 53 9.25Q53.3 9.14 53.61 9.11Q53.76 9.09 53.91 9.09Q54.61 9.09 54.96 9.42Q55.02 9.47 55.07 9.53Q55.32 9.84 55.32 10.36L55.32 10.55L53.81 10.55Q52.72 10.55 52.21 10.97Q52 11.15 51.87 11.38Q51.71 11.68 51.71 12.08Q51.71 12.44 51.85 12.73Q51.98 13 52.23 13.2Q52.76 13.63 53.65 13.63Q54.25 13.63 54.69 13.43Q55.04 13.28 55.26 13.02Q55.32 12.95 55.37 12.87L55.37 13.57L56.27 13.57L56.27 10.4Q56.27 9.44 55.79 8.91Q55.74 8.85 55.69 8.8ZM61 13.33Q61.59 13.63 62.34 13.63Q63.05 13.63 63.61 13.34Q63.92 13.18 64.14 12.95Q64.34 12.75 64.48 12.5L63.76 12.04Q63.55 12.36 63.26 12.54Q63.2 12.58 63.14 12.61Q63.09 12.64 63.03 12.66Q62.71 12.8 62.33 12.8Q61.89 12.8 61.52 12.63Q61.46 12.6 61.41 12.57Q61.23 12.47 61.09 12.34Q60.89 12.16 60.76 11.92Q60.53 11.5 60.53 10.94Q60.53 10.41 60.75 9.99Q60.76 9.98 60.76 9.98Q60.9 9.73 61.09 9.55Q61.23 9.42 61.41 9.33Q61.46 9.3 61.52 9.27Q61.89 9.1 62.33 9.1Q62.71 9.1 63.03 9.24Q63.09 9.26 63.14 9.29Q63.2 9.32 63.25 9.35Q63.55 9.54 63.76 9.85L64.48 9.39Q64.33 9.13 64.13 8.93Q63.91 8.71 63.61 8.56Q63.05 8.27 62.34 8.27Q61.58 8.27 60.97 8.58Q60.94 8.59 60.91 8.61Q60.57 8.8 60.31 9.06Q60.09 9.28 59.92 9.56Q59.86 9.66 59.81 9.77Q59.57 10.3 59.57 10.94Q59.57 11.58 59.81 12.1Q59.86 12.21 59.92 12.32Q60.08 12.59 60.29 12.81Q60.56 13.09 60.91 13.28Q60.95 13.31 61 13.33ZM68.95 8.8Q68.37 8.27 67.28 8.27Q66.65 8.27 66.08 8.44Q65.52 8.62 65.11 8.94L65.51 9.65Q65.82 9.4 66.26 9.25Q66.57 9.14 66.88 9.11Q67.02 9.09 67.17 9.09Q67.87 9.09 68.22 9.42Q68.28 9.47 68.33 9.53Q68.58 9.84 68.58 10.36L68.58 10.55L67.08 10.55Q65.98 10.55 65.47 10.97Q65.26 11.15 65.13 11.38Q64.97 11.68 64.97 12.08Q64.97 12.44 65.11 12.73Q65.24 13 65.5 13.2Q66.03 13.63 66.91 13.63Q67.51 13.63 67.95 13.43Q68.3 13.28 68.52 13.02Q68.58 12.95 68.63 12.87L68.63 13.57L69.53 13.57L69.53 10.4Q69.53 9.44 69.05 8.91Q69.01 8.85 68.95 8.8ZM82.9 13.37Q83.46 13.63 84.13 13.63Q84.81 13.63 85.36 13.37Q85.45 13.33 85.53 13.28Q85.86 13.1 86.12 12.83Q86.34 12.61 86.5 12.32Q86.56 12.22 86.61 12.11Q86.85 11.58 86.85 10.94Q86.85 10.29 86.61 9.76Q86.56 9.66 86.5 9.56Q86.33 9.27 86.1 9.04Q85.85 8.79 85.53 8.61Q85.46 8.57 85.39 8.54Q84.82 8.27 84.13 8.27Q83.44 8.27 82.87 8.53Q82.8 8.57 82.72 8.61Q82.39 8.79 82.14 9.05Q81.91 9.28 81.75 9.56Q81.69 9.65 81.65 9.75Q81.4 10.29 81.4 10.94Q81.4 11.59 81.64 12.12Q81.69 12.23 81.75 12.32Q81.91 12.6 82.12 12.82Q82.38 13.09 82.72 13.28Q82.81 13.33 82.9 13.37ZM44.03 9.15L45.95 9.15L45.95 8.32L41.16 8.32L41.16 9.15L43.08 9.15L43.08 13.57L44.03 13.57L44.03 9.15ZM47.57 11.35L48.66 11.35L50.43 13.57L51.55 13.57L49.42 10.84L51.41 8.32L50.39 8.32L48.68 10.54L47.57 10.54L47.57 8.32L46.62 8.32L46.62 13.57L47.57 13.57L47.57 11.35ZM71.9 8.32L70.95 8.32L70.95 13.57L71.82 13.57L75.03 9.74L75.03 13.57L75.98 13.57L75.98 8.32L75.12 8.32L71.9 12.14L71.9 8.32ZM79.51 9.15L81.44 9.15L81.44 8.32L76.64 8.32L76.64 9.15L78.56 9.15L78.56 13.57L79.51 13.57L79.51 9.15ZM92.29 11.32Q92.04 10.98 91.51 10.84Q91.87 10.7 92.08 10.44Q92.1 10.41 92.13 10.38Q92.18 10.31 92.23 10.22Q92.35 9.97 92.35 9.66Q92.35 9.33 92.21 9.07Q92.08 8.84 91.83 8.67Q91.3 8.32 90.37 8.32L87.93 8.32L87.93 13.57L90.46 13.57Q91.49 13.57 92.01 13.19Q92.22 13.04 92.35 12.83Q92.53 12.53 92.53 12.12Q92.53 11.63 92.29 11.32ZM90.29 10.58L88.86 10.58L88.86 9.05L90.29 9.05Q91.05 9.05 91.29 9.4Q91.4 9.57 91.4 9.8Q91.4 10.03 91.3 10.19Q91.23 10.3 91.12 10.38Q90.84 10.58 90.29 10.58ZM4.37 12.64Q4.03 12.8 3.62 12.8Q3.26 12.8 2.96 12.68Q2.83 12.63 2.72 12.56Q2.54 12.46 2.4 12.32Q2.21 12.15 2.08 11.91Q1.86 11.49 1.86 10.94Q1.86 10.4 2.09 9.98Q2.23 9.73 2.43 9.55Q2.56 9.43 2.72 9.33Q2.83 9.27 2.93 9.23Q3.25 9.1 3.62 9.1Q4.04 9.1 4.4 9.26Q4.46 9.29 4.53 9.33Q4.67 9.41 4.8 9.52Q5.01 9.71 5.16 9.98Q5.16 9.98 5.17 9.99Q5.39 10.41 5.39 10.94Q5.39 11.47 5.17 11.88Q5.17 11.9 5.16 11.91Q5.02 12.17 4.81 12.36Q4.68 12.47 4.53 12.56Q4.45 12.61 4.37 12.64ZM21.38 12.64Q21.04 12.8 20.62 12.8Q20.27 12.8 19.96 12.68Q19.84 12.63 19.72 12.56Q19.55 12.46 19.4 12.32Q19.22 12.15 19.09 11.91Q18.86 11.49 18.86 10.94Q18.86 10.4 19.09 9.98Q19.23 9.73 19.43 9.55Q19.57 9.43 19.73 9.33Q19.83 9.27 19.94 9.23Q20.26 9.1 20.62 9.1Q21.05 9.1 21.4 9.26Q21.47 9.29 21.53 9.33Q21.68 9.41 21.8 9.52Q22.02 9.71 22.17 9.98Q22.17 9.98 22.17 9.99Q22.4 10.41 22.4 10.94Q22.4 11.47 22.18 11.88Q22.17 11.9 22.17 11.91Q22.02 12.17 21.81 12.36Q21.69 12.47 21.53 12.56Q21.46 12.61 21.38 12.64ZM39.17 12.65Q38.83 12.8 38.43 12.8Q38.02 12.8 37.68 12.64Q37.6 12.61 37.53 12.56Q37.38 12.48 37.25 12.36Q37.04 12.17 36.89 11.91Q36.88 11.9 36.88 11.88Q36.66 11.47 36.66 10.94Q36.66 10.41 36.88 9.99Q36.89 9.98 36.89 9.98Q37.04 9.7 37.26 9.51Q37.39 9.41 37.53 9.33Q37.59 9.29 37.66 9.26Q38.01 9.1 38.43 9.1Q38.85 9.1 39.19 9.26Q39.27 9.29 39.34 9.33Q39.49 9.42 39.62 9.53Q39.83 9.72 39.97 9.98Q40.2 10.4 40.2 10.94Q40.2 11.48 39.97 11.9Q39.97 11.9 39.97 11.91Q39.83 12.16 39.63 12.34Q39.5 12.47 39.34 12.56Q39.26 12.61 39.17 12.65ZM84.87 12.65Q84.53 12.8 84.13 12.8Q83.72 12.8 83.38 12.64Q83.3 12.61 83.22 12.56Q83.07 12.48 82.95 12.36Q82.74 12.17 82.59 11.91Q82.58 11.9 82.58 11.88Q82.36 11.47 82.36 10.94Q82.36 10.41 82.58 9.99Q82.59 9.98 82.59 9.98Q82.74 9.7 82.96 9.51Q83.08 9.41 83.22 9.33Q83.29 9.29 83.35 9.26Q83.71 9.1 84.13 9.1Q84.55 9.1 84.89 9.26Q84.96 9.29 85.04 9.33Q85.19 9.42 85.32 9.53Q85.52 9.72 85.66 9.98Q85.89 10.4 85.89 10.94Q85.89 11.48 85.67 11.9Q85.67 11.9 85.66 11.91Q85.53 12.16 85.33 12.34Q85.2 12.47 85.04 12.56Q84.95 12.61 84.87 12.65ZM33.24 12.67Q32.88 12.85 32.43 12.85Q32.03 12.85 31.7 12.71Q31.62 12.67 31.54 12.63Q31.36 12.52 31.21 12.38Q31.04 12.21 30.92 12Q30.91 11.97 30.89 11.95Q30.7 11.56 30.7 11.08Q30.7 10.5 30.96 10.09Q31.05 9.95 31.18 9.82Q31.31 9.69 31.47 9.59Q31.88 9.35 32.43 9.35Q33 9.35 33.4 9.6Q33.55 9.7 33.68 9.82Q33.8 9.94 33.89 10.08Q34.15 10.49 34.15 11.08Q34.15 11.58 33.95 11.97Q33.94 11.99 33.94 12Q33.82 12.21 33.66 12.37Q33.51 12.52 33.33 12.63Q33.28 12.65 33.24 12.67ZM9.98 12.65Q9.58 12.89 9.04 12.89Q8.49 12.89 8.19 12.67Q8.05 12.56 7.97 12.42Q7.88 12.26 7.88 12.04Q7.88 11.79 8 11.61Q8.26 11.23 9.09 11.23L10.55 11.23L10.55 11.96Q10.45 12.23 10.27 12.42Q10.14 12.55 9.98 12.65ZM26.98 12.65Q26.59 12.89 26.04 12.89Q25.5 12.89 25.19 12.67Q25.05 12.56 24.98 12.42Q24.88 12.26 24.88 12.04Q24.88 11.79 25 11.61Q25.26 11.23 26.09 11.23L27.56 11.23L27.56 11.96Q27.45 12.23 27.27 12.42Q27.15 12.55 26.98 12.65ZM54.74 12.65Q54.35 12.89 53.8 12.89Q53.26 12.89 52.95 12.67Q52.81 12.56 52.74 12.42Q52.65 12.26 52.65 12.04Q52.65 11.79 52.76 11.61Q53.02 11.23 53.85 11.23L55.32 11.23L55.32 11.96Q55.21 12.23 55.03 12.42Q54.91 12.55 54.74 12.65ZM68.01 12.65Q67.61 12.89 67.07 12.89Q66.52 12.89 66.21 12.67Q66.08 12.56 66 12.42Q65.91 12.26 65.91 12.04Q65.91 11.79 66.02 11.61Q66.28 11.23 67.12 11.23L68.58 11.23L68.58 11.96Q68.48 12.23 68.29 12.42Q68.17 12.55 68.01 12.65ZM91.28 12.65Q90.98 12.83 90.39 12.83L88.86 12.83L88.86 11.26L90.45 11.26Q91.03 11.26 91.3 11.46Q91.38 11.51 91.44 11.59Q91.58 11.77 91.58 12.06Q91.58 12.31 91.46 12.48Q91.39 12.58 91.28 12.65Z" fill="#DC205E" fill-opacity="1.000000" fill-rule="evenodd"/>
		<path  d="M208.49 11.2L195.82 3.11C190.13 -0.53 182.81 -0.53 177.12 3.11L168.49 8.62C165.57 10.48 166.88 15.03 170.36 15.03L202.33 15.03L239.96 39.06C247.53 43.88 257.21 43.88 264.77 39.06L289.86 23.03C293.66 20.6 293.58 15.73 290.98 13.05C289.87 11.91 288.31 11.17 286.4 11.17L286.4 11.2L208.49 11.2ZM286.8 15.77L211.99 15.77L242.42 35.21C243.93 36.17 245.51 36.89 247.15 37.37C248.82 37.86 250.56 38.11 252.37 38.11C254.17 38.11 255.9 37.86 257.57 37.38C259.22 36.89 260.8 36.17 262.31 35.2L287.4 19.18C287.79 18.93 288.04 18.63 288.18 18.29C288.31 17.94 288.31 17.54 288.18 17.08C288.04 16.63 287.83 16.29 287.52 16.07C287.32 15.92 287.08 15.82 286.8 15.77ZM198.84 10.46L193.36 6.96C191.06 5.49 188.77 4.76 186.47 4.76C184.17 4.76 181.88 5.49 179.58 6.96L174.11 10.46L198.84 10.46Z" fill="#DC205E" fill-opacity="1.000000" fill-rule="evenodd"/>
		<rect  x="254.050293" y="34.070801" rx="1.143043" width="25.406731" height="2.286086" transform="rotate(-32.4613 254.050293 34.070801)" fill="#DC205E" fill-opacity="1.000000"/>
		<rect  x="244.992188" y="31.861328" rx="1.143043" width="21.986572" height="2.286086" transform="rotate(-32.4613 244.992188 31.861328)" fill="#DC205E" fill-opacity="1.000000"/>
		<rect  x="237.371826" y="28.912109" rx="1.143043" width="16.192701" height="2.286086" transform="rotate(-32.4613 237.371826 28.912109)" fill="#DC205E" fill-opacity="1.000000"/>
		<path  d="M269.88 4.58L272.96 -0.01C273.64 -1.03 272.91 -2.39 271.69 -2.39L265.53 -2.39C264.31 -2.39 263.58 -1.03 264.26 -0.01L267.34 4.58C267.95 5.48 269.27 5.48 269.88 4.58Z" fill="#DC205E" fill-opacity="1.000000" fill-rule="evenodd"/>
	</g>
</svg>
