<svg width="17.241333" height="17.241455" viewBox="0 0 17.2413 17.2415" fill="none" xmlns="http://www.w3.org/2000/svg" xmlns:xlink="http://www.w3.org/1999/xlink">
	<desc>
			Created with Pixso.
	</desc>
	<defs/>
	<path id="Vector" d="M8.62 0C3.85 0 0 3.85 0 8.62C0 13.38 3.85 17.24 8.62 17.24C13.38 17.24 17.24 13.38 17.24 8.62C17.24 3.85 13.38 0 8.62 0ZM12.61 5.86C12.48 7.22 11.92 10.53 11.63 12.06C11.51 12.7 11.28 12.92 11.05 12.94C10.55 12.99 10.17 12.61 9.68 12.29C8.92 11.79 8.49 11.48 7.76 11C6.91 10.44 7.46 10.13 7.94 9.63C8.07 9.49 10.27 7.49 10.32 7.31C10.32 7.28 10.33 7.2 10.28 7.15C10.23 7.11 10.15 7.12 10.1 7.14C10.02 7.15 8.81 7.95 6.46 9.54C6.12 9.78 5.81 9.89 5.53 9.88C5.22 9.88 4.63 9.71 4.19 9.57C3.65 9.39 3.22 9.3 3.26 9C3.28 8.85 3.49 8.69 3.9 8.52C6.41 7.43 8.09 6.71 8.92 6.36C11.32 5.36 11.82 5.19 12.14 5.18C12.55 5.18 12.64 5.51 12.61 5.86Z" fill="#FFFFFF" fill-opacity="1.000000" fill-rule="evenodd"/>
</svg>
